<?xml version="1.0" encoding="utf-8"?>
<!-- Generator: Adobe Illustrator 28.3.0, SVG Export Plug-In . SVG Version: 6.00 Build 0)  -->
<svg version="1.1" id="Capa_1" xmlns="http://www.w3.org/2000/svg" xmlns:xlink="http://www.w3.org/1999/xlink" x="0px" y="0px"
	 viewBox="0 0 916.3 153.2" style="enable-background:new 0 0 916.3 153.2;" xml:space="preserve">
<style type="text/css">
	.st0{fill:#FFFFFF;}
</style>
<g>
	<g>
		<path class="st0" d="M170.6,93.9h-1.8V67.4h14.6V69h-12.6v11.2h12v1.7h-12v12C170.8,93.9,170.6,93.9,170.6,93.9z"/>
		<path class="st0" d="M207,67.4v17.2c0,2.1-0.5,3.8-1.2,5.3s-2,2.6-3.5,3.3c-1.5,0.8-3.3,1.2-5.3,1.2c-3.2,0-5.6-0.9-7.3-2.6
			s-2.6-4.1-2.6-7.3V67.4h1.8v17c0,2.7,0.8,4.7,2.1,6.1c1.4,1.4,3.3,2.1,5.9,2.1c1.7,0,3.2-0.3,4.4-0.9s2.1-1.5,2.7-2.7
			c0.6-1.2,0.9-2.6,0.9-4.3V67.4H207z"/>
		<path class="st0" d="M233.4,93.9h-2l-15.5-23.5h-0.2c0,0.6,0,1.4,0,2s0,1.4,0,2.1s0,1.4,0,2.1v17.2h-1.8V67.4h2l15.8,23.4h0.2
			c0-0.6,0-1.2,0-1.8c0-0.8,0-1.4,0-2.1c0-0.8,0-1.4,0-2.1V67.4h1.8V94L233.4,93.9L233.4,93.9z"/>
		<path class="st0" d="M261.2,80.4c0,3-0.5,5.5-1.5,7.4c-1.1,2-2.6,3.5-4.7,4.6c-2.1,1.1-4.6,1.5-7.6,1.5H241V67.4h7.1
			c2.9,0,5.2,0.5,7.1,1.5c2,1.1,3.3,2.4,4.4,4.4C260.6,75.3,261.2,77.5,261.2,80.4z M259.2,80.4c0-2.6-0.5-4.7-1.2-6.4
			s-2.1-3-3.8-3.8c-1.7-0.9-3.8-1.2-6.4-1.2H243v23.2h4.4c3.9,0,7-0.9,9-2.9C258.1,87.4,259.2,84.4,259.2,80.4z"/>
		<path class="st0" d="M283.8,93.9l-3.6-9.4h-11.1l-3.6,9.4h-2L274,67.3h1.7l10.2,26.6H283.8z M279.6,82.9L276,73
			c-0.2-0.3-0.2-0.6-0.3-0.9c-0.2-0.5-0.3-0.8-0.5-1.2c-0.2-0.5-0.3-0.9-0.5-1.2c-0.2,0.5-0.3,0.9-0.5,1.2c-0.2,0.3-0.3,0.8-0.5,1.2
			c-0.2,0.5-0.3,0.8-0.5,1.1l-3.8,9.9L279.6,82.9L279.6,82.9z"/>
		<path class="st0" d="M300.7,68.7c-1.7,0-3.2,0.3-4.6,0.9s-2.4,1.4-3.3,2.4s-1.7,2.3-2.1,3.8s-0.8,3-0.8,4.9c0,2.4,0.3,4.6,1.2,6.4
			c0.8,1.8,2,3.2,3.5,4.3c1.5,1.1,3.5,1.5,5.8,1.5c1.4,0,2.6-0.2,3.6-0.3c1.1-0.2,2.1-0.5,3-0.8v1.7c-0.9,0.3-1.8,0.6-3,0.8
			c-1.1,0.2-2.4,0.3-3.8,0.3c-2.6,0-4.9-0.6-6.7-1.7c-1.8-1.1-3.2-2.7-4.1-4.9s-1.4-4.4-1.4-7.1c0-2,0.3-3.8,0.9-5.5s1.4-3,2.4-4.3
			c1.1-1.2,2.4-2.1,3.9-2.9c1.5-0.6,3.3-1.1,5.3-1.1c1.2,0,2.4,0.2,3.6,0.3c1.2,0.3,2.3,0.6,3.2,1.1l-0.8,1.7c-0.9-0.5-2-0.9-3-1.1
			C303,68.9,301.9,68.7,300.7,68.7z"/>
		<path class="st0" d="M312.5,93.9V67.4h1.8V94L312.5,93.9L312.5,93.9z"/>
		<path class="st0" d="M344.3,80.6c0,2-0.3,3.8-0.8,5.5s-1.2,3-2.3,4.3c-1.1,1.2-2.3,2.1-3.6,2.7c-1.5,0.6-3.2,1.1-5.2,1.1
			s-3.6-0.3-5.2-1.1c-1.5-0.6-2.7-1.7-3.6-2.9c-0.9-1.2-1.7-2.7-2.3-4.4c-0.5-1.7-0.8-3.5-0.8-5.5c0-2.7,0.5-5,1.4-7.1
			c0.9-2,2.3-3.6,4.1-4.9c1.8-1.2,3.9-1.7,6.7-1.7c2.6,0,4.7,0.6,6.4,1.7c1.8,1.1,3,2.7,3.9,4.7C343.8,75.4,344.3,77.8,344.3,80.6z
			 M322.4,80.6c0,2.4,0.3,4.4,1.1,6.2c0.8,1.8,1.8,3.2,3.3,4.3c1.5,1.1,3.3,1.5,5.6,1.5s4.1-0.5,5.6-1.5s2.6-2.4,3.2-4.3
			c0.8-1.8,1.1-3.9,1.1-6.2c0-3.8-0.8-6.7-2.4-8.8c-1.7-2.1-4.1-3.2-7.3-3.2c-2.3,0-4.1,0.5-5.6,1.5s-2.6,2.4-3.3,4.3
			C322.9,76.2,322.4,78.3,322.4,80.6z M337.6,58.7V59c-0.3,0.5-0.6,0.8-1.1,1.4c-0.5,0.5-0.9,1.1-1.4,1.5c-0.5,0.5-1.1,1.1-1.5,1.5
			c-0.5,0.5-1.1,0.9-1.5,1.4h-1.4v-0.3c0.5-0.5,1.1-1.1,1.7-1.7s1.1-1.4,1.7-2.1c0.5-0.8,0.9-1.4,1.4-1.8h2.1L337.6,58.7L337.6,58.7
			z"/>
		<path class="st0" d="M369.7,93.9h-2L352,70.5h-0.2c0,0.6,0,1.4,0,2s0,1.4,0,2.1s0,1.4,0,2.1v17.2H350V67.4h2l15.8,23.4h0.2
			c0-0.6,0-1.2,0-1.8c0-0.8,0-1.4,0-2.1c0-0.8,0-1.4,0-2.1V67.4h1.8L369.7,93.9L369.7,93.9L369.7,93.9z"/>
		<path class="st0" d="M406.9,80.4c0,3-0.5,5.5-1.5,7.4c-1.1,2-2.6,3.5-4.7,4.6s-4.6,1.5-7.6,1.5h-6.4V67.4h7.1
			c2.9,0,5.2,0.5,7.1,1.5c2,1.1,3.3,2.4,4.4,4.4S406.9,77.5,406.9,80.4z M404.9,80.4c0-2.6-0.5-4.7-1.2-6.4s-2.1-3-3.8-3.8
			c-1.7-0.9-3.8-1.2-6.4-1.2h-4.9v23.2h4.4c3.9,0,7-0.9,9-2.9C404,87.4,404.9,84.4,404.9,80.4z"/>
		<path class="st0" d="M427.4,93.9H413V67.4h14.4V69h-12.6v10h11.8v1.7h-11.8v11.5h12.6V93.9z"/>
		<path class="st0" d="M454.4,68.7c-1.7,0-3.2,0.3-4.6,0.9s-2.4,1.4-3.3,2.4s-1.7,2.3-2.1,3.8s-0.8,3-0.8,4.9c0,2.4,0.3,4.6,1.2,6.4
			c0.8,1.8,2,3.2,3.5,4.3c1.5,1.1,3.5,1.5,5.8,1.5c1.4,0,2.6-0.2,3.6-0.3c1.1-0.2,2.1-0.5,3-0.8v1.7c-0.9,0.3-1.8,0.6-3,0.8
			c-1.1,0.2-2.4,0.3-3.8,0.3c-2.6,0-4.9-0.6-6.7-1.7c-1.8-1.1-3.2-2.7-4.1-4.9c-0.9-2.1-1.4-4.4-1.4-7.1c0-2,0.3-3.8,0.9-5.5
			s1.4-3,2.4-4.3c1.1-1.2,2.4-2.1,3.9-2.9c1.5-0.6,3.3-1.1,5.3-1.1c1.2,0,2.4,0.2,3.6,0.3c1.2,0.3,2.3,0.6,3.2,1.1l-0.8,1.7
			c-0.9-0.5-2-0.9-3-1.1C456.5,68.9,455.5,68.7,454.4,68.7z"/>
		<path class="st0" d="M485.7,67.4v17.2c0,2.1-0.5,3.8-1.2,5.3s-2,2.6-3.5,3.3c-1.5,0.8-3.3,1.2-5.3,1.2c-3.2,0-5.6-0.9-7.3-2.6
			c-1.7-1.7-2.6-4.1-2.6-7.3V67.4h1.8v17c0,2.7,0.8,4.7,2.1,6.1c1.4,1.4,3.3,2.1,5.9,2.1c1.7,0,3.2-0.3,4.4-0.9s2.1-1.5,2.7-2.7
			s0.9-2.6,0.9-4.3V67.4H485.7z"/>
		<path class="st0" d="M492.9,93.9V67.4h1.8v24.9h12.6V94L492.9,93.9L492.9,93.9z"/>
		<path class="st0" d="M518.8,93.9H517V69h-8.7v-1.7h19.1V69h-8.7L518.8,93.9L518.8,93.9z"/>
		<path class="st0" d="M551,67.4v17.2c0,2.1-0.5,3.8-1.2,5.3c-0.8,1.5-2,2.6-3.5,3.3c-1.5,0.8-3.3,1.2-5.3,1.2
			c-3.2,0-5.6-0.9-7.3-2.6s-2.6-4.1-2.6-7.3V67.4h1.8v17c0,2.7,0.8,4.7,2.1,6.1c1.4,1.4,3.3,2.1,5.9,2.1c1.7,0,3.2-0.3,4.4-0.9
			s2.1-1.5,2.7-2.7c0.6-1.2,0.9-2.6,0.9-4.3V67.4H551z"/>
		<path class="st0" d="M564.6,67.4c2.1,0,3.8,0.3,5.3,0.8c1.4,0.5,2.4,1.2,3.2,2.3c0.8,1.1,1.1,2.4,1.1,4.3c0,1.4-0.3,2.4-0.8,3.5
			c-0.5,0.9-1.2,1.8-2,2.4c-0.9,0.6-1.8,1.1-3,1.4l7.3,12h-2.3l-6.8-11.5H560v11.5h-1.8V67.4H564.6z M564.4,69H560v11.7h5.3
			c2.1,0,3.8-0.5,5-1.5s1.8-2.6,1.8-4.6c0-2.1-0.6-3.6-2-4.4C569,69.5,567,69,564.4,69z"/>
		<path class="st0" d="M596.8,93.9l-3.6-9.4H582l-3.6,9.4h-2l10.5-26.6h1.7l10.2,26.6H596.8z M592.7,82.9L589,73
			c-0.2-0.3-0.2-0.6-0.3-0.9c-0.2-0.5-0.3-0.8-0.5-1.2c-0.2-0.5-0.3-0.9-0.5-1.2c-0.2,0.5-0.3,0.9-0.5,1.2c-0.2,0.3-0.3,0.8-0.5,1.2
			c-0.2,0.5-0.3,0.8-0.5,1.1l-3.8,9.9L592.7,82.9L592.7,82.9z"/>
		<path class="st0" d="M631.7,67.4v17.2c0,2.1-0.5,3.8-1.2,5.3c-0.8,1.5-2,2.6-3.5,3.3c-1.5,0.8-3.3,1.2-5.3,1.2
			c-3.2,0-5.6-0.9-7.3-2.6s-2.6-4.1-2.6-7.3V67.4h1.8v17c0,2.7,0.8,4.7,2.1,6.1c1.4,1.4,3.3,2.1,5.9,2.1c1.7,0,3.2-0.3,4.4-0.9
			s2.1-1.5,2.7-2.7c0.6-1.2,0.9-2.6,0.9-4.3V67.4H631.7z"/>
		<path class="st0" d="M658.1,93.9h-2l-15.6-23.4h-0.2c0,0.6,0,1.4,0,2s0,1.4,0,2.1s0,1.4,0,2.1v17.2h-1.8V67.4h2l16,23.4h0.2
			c0-0.6,0-1.2,0-1.8c0-0.8,0-1.4,0-2.1c0-0.8,0-1.4,0-2.1V67.4h1.8V94L658.1,93.9L658.1,93.9z"/>
		<path class="st0" d="M665.7,93.9V67.4h1.8V94L665.7,93.9L665.7,93.9z"/>
		<path class="st0" d="M692.8,67.4L683,93.9h-1.8l-9.7-26.6h2l7.3,19.6c0.2,0.6,0.5,1.1,0.6,1.7c0.2,0.6,0.3,1.1,0.5,1.5
			s0.3,0.9,0.5,1.4c0.2-0.5,0.3-0.9,0.5-1.4s0.3-0.9,0.5-1.5s0.5-1.1,0.6-1.7l7.3-19.6L692.8,67.4L692.8,67.4z"/>
		<path class="st0" d="M711,93.9h-14.4V67.4H711V69h-12.6v10h11.8v1.7h-11.8v11.5H711V93.9z"/>
		<path class="st0" d="M723.5,67.4c2.1,0,3.8,0.3,5.3,0.8c1.4,0.5,2.4,1.2,3.2,2.3c0.8,1.1,1.1,2.4,1.1,4.3c0,1.4-0.3,2.4-0.8,3.5
			c-0.5,0.9-1.2,1.8-2,2.4c-0.9,0.6-1.8,1.1-3,1.4l7.3,12h-2.3l-6.8-11.5H719v11.5h-1.8V67.4H723.5z M723.3,69h-4.4v11.7h5.3
			c2.1,0,3.8-0.5,5-1.5s1.8-2.6,1.8-4.6c0-2.1-0.6-3.6-2-4.4C727.9,69.5,725.9,69,723.3,69z"/>
		<path class="st0" d="M753.7,87.1c0,1.5-0.5,2.9-1.2,3.9c-0.8,1.1-1.8,1.8-3.2,2.4s-2.9,0.8-4.7,0.8c-1.1,0-2.1,0-2.9-0.2
			c-0.9-0.2-1.7-0.3-2.4-0.5c-0.8-0.2-1.4-0.3-2-0.6v-1.8c0.9,0.3,2,0.6,3.3,0.9c1.2,0.3,2.6,0.5,4.1,0.5c1.4,0,2.6-0.2,3.6-0.6
			c1.1-0.5,2-1.1,2.6-1.8s0.9-1.8,0.9-3c0-1.1-0.3-2-0.8-2.7c-0.5-0.8-1.2-1.4-2.3-1.8c-1.1-0.5-2.3-1.1-3.9-1.5
			c-1.1-0.3-2.1-0.8-3-1.2c-0.9-0.5-1.7-0.9-2.3-1.5s-1.1-1.2-1.4-2s-0.5-1.7-0.5-2.7c0-1.5,0.3-2.7,1.1-3.6c0.8-1.1,1.8-1.8,3-2.3
			s2.7-0.8,4.3-0.8c1.2,0,2.4,0.2,3.6,0.3c1.2,0.3,2.3,0.6,3.3,1.1l-0.6,1.7c-1.1-0.5-2.1-0.8-3.2-1.1c-1.1-0.2-2.1-0.3-3.2-0.3
			c-1.2,0-2.3,0.2-3.3,0.6c-0.9,0.3-1.7,0.9-2.3,1.7c-0.6,0.8-0.9,1.7-0.9,2.7c0,1.2,0.3,2.1,0.8,2.7c0.5,0.8,1.2,1.4,2.3,1.8
			c0.9,0.5,2.1,0.9,3.5,1.4c1.5,0.6,2.9,1.1,4.1,1.7c1.1,0.6,2,1.4,2.6,2.3C753.4,84.5,753.7,85.6,753.7,87.1z"/>
		<path class="st0" d="M759.3,93.9V67.4h1.8V94L759.3,93.9L759.3,93.9z"/>
		<path class="st0" d="M775.6,93.9h-1.8V69h-8.7v-1.7h19.1V69h-8.7L775.6,93.9L775.6,93.9z"/>
		<path class="st0" d="M804.7,93.9l-3.6-9.4H790l-3.6,9.4h-2l10.5-26.6h1.7l10.2,26.6H804.7z M800.6,82.9L797,73
			c-0.2-0.3-0.2-0.6-0.3-0.9c-0.2-0.5-0.3-0.8-0.5-1.2c-0.2-0.5-0.3-0.9-0.5-1.2c-0.2,0.5-0.3,0.9-0.5,1.2c-0.2,0.3-0.3,0.8-0.5,1.2
			c-0.2,0.5-0.3,0.8-0.5,1.1l-3.8,9.9L800.6,82.9L800.6,82.9z"/>
		<path class="st0" d="M816.9,67.4c2.1,0,3.8,0.3,5.3,0.8c1.4,0.5,2.4,1.2,3.2,2.3c0.8,1.1,1.1,2.4,1.1,4.3c0,1.4-0.3,2.4-0.8,3.5
			c-0.5,0.9-1.2,1.8-2,2.4c-0.9,0.6-1.8,1.1-3,1.4l7.3,12h-2.3l-6.8-11.5h-6.5v11.5h-1.8V67.4H816.9z M816.7,69h-4.4v11.7h5.3
			c2.1,0,3.8-0.5,5-1.5s1.8-2.6,1.8-4.6c0-2.1-0.6-3.6-2-4.4C821.3,69.5,819.3,69,816.7,69z"/>
		<path class="st0" d="M832.5,93.9V67.4h1.8V94L832.5,93.9L832.5,93.9z"/>
		<path class="st0" d="M858.5,93.9l-3.6-9.4h-11.1l-3.6,9.4h-2l10.5-26.6h1.7l10.2,26.6H858.5z M854.2,82.9l-3.6-9.9
			c-0.2-0.3-0.2-0.6-0.3-0.9c-0.2-0.5-0.3-0.8-0.5-1.2c-0.2-0.5-0.3-0.9-0.5-1.2c-0.2,0.5-0.3,0.9-0.5,1.2c-0.2,0.3-0.3,0.8-0.5,1.2
			c-0.2,0.5-0.3,0.8-0.5,1.1l-3.8,9.9L854.2,82.9L854.2,82.9z"/>
	</g>
	<path class="st0" d="M133.9,77.6L133.9,77.6L133.9,77.6h11.6v-1.7h-11.6l0,0l0,0l0,0c-0.1-1.2-0.2-3.3-0.4-4.5l11-2.5l-0.4-1.7
		l-11,2.5c-0.4-1.9-1-3.7-1.7-5.5l9.9-4.6l-0.7-1.6l-9.9,4.6c-0.8-1.6-1.7-3.2-2.7-4.6l8.9-6.9l-1-1.4l-8.8,6.8
		c-1-1.3-2.1-2.5-3.2-3.6l6.9-7.7l-1.3-1.1l-6.9,7.7c-1-0.9-2.1-1.7-3.2-2.5l5.5-8.7l-1.4-0.9l-5.4,8.6c-1.3-0.8-2.7-1.5-4.1-2.1
		l3.7-9.1l-1.6-0.6l-3.7,9.1c-1.4-0.5-2.8-0.9-4.2-1.2l1.9-9.6l-1.7-0.3l-1.9,9.6c-1.5-0.3-3.1-0.4-4.7-0.5v-9.8h-2v9.8
		c-1.6,0-3.2,0.2-4.7,0.5l-1.9-9.6l-1.7,0.3l1.9,9.6c-1.5,0.3-2.9,0.8-4.3,1.3l-3.6-9.1l-1.6,0.6l3.6,9.1c-1.4,0.6-2.7,1.3-4,2.1
		L78,39.8l-1.4,0.9l5.5,8.6c-1.1,0.8-2.2,1.6-3.2,2.5L72,44.2l-1.3,1.1l6.9,7.6c-1.1,1.1-2.2,2.3-3.1,3.5l-8.9-6.7l-1,1.4l8.9,6.7
		c-1,1.5-2,3.1-2.8,4.7l-9.9-4.6l-0.7,1.6l9.9,4.6c-0.7,1.7-1.3,3.5-1.7,5.4l-11-2.3l-0.4,1.7l11,2.3c-0.2,1.3-0.4,3.3-0.4,4.6h-0.1
		l0,0H55.8v1.7h11.6l0,0h0.1c0.1,1.3,0.2,3.4,0.4,4.6l-11,2.3l0.4,1.7l11-2.3c0.4,1.9,1,3.7,1.7,5.4l-9.9,4.6l0.7,1.6l9.9-4.6
		c0.8,1.6,1.7,3.2,2.8,4.7l-8.9,6.7l1,1.4l8.9-6.7c1,1.2,2,2.4,3.1,3.5l-6.9,7.6l1.3,1.1l6.9-7.6c1,0.9,2.1,1.7,3.2,2.5l-5.5,8.6
		l1.4,0.9l5.5-8.6c1.3,0.8,2.6,1.5,4,2.1l-3.6,9.1l1.6,0.6l3.6-9.1c1.4,0.5,2.8,0.9,4.3,1.3l-1.9,9.6l1.7,0.3l1.9-9.6
		c1.5,0.3,3.1,0.4,4.7,0.5v9.8h1.7v-9.8c1.6,0,3.2-0.2,4.7-0.5l1.9,9.6l1.7-0.3l-1.9-9.6c1.5-0.3,2.9-0.7,4.2-1.2l3.7,9.1l1.6-0.6
		l-3.7-9.1c1.4-0.6,2.8-1.3,4.1-2.1l5.4,8.6l1.4-0.9l-5.5-8.7c1.1-0.8,2.2-1.6,3.2-2.5l6.9,7.7l1.3-1.1l-6.9-7.7
		c1.2-1.1,2.2-2.3,3.2-3.6l8.8,6.8l1-1.4l-8.9-6.9c1-1.5,1.9-3,2.7-4.6l9.9,4.6l0.7-1.6l-9.9-4.6c0.7-1.8,1.3-3.6,1.7-5.5l11,2.5
		l0.4-1.7l-11-2.5C133.6,80.8,133.8,78.8,133.9,77.6L133.9,77.6z M117.3,55.1l-3.6,10.2l-5.4-4.2L117.3,55.1z M100.7,49.4l3.4,10.3
		h-6.8L100.7,49.4z M93,61.2l-5.4,4.2L84,55.1L93,61.2z M85.6,68.3l-2.2,6.5l-8.7-6.5H85.6z M74.7,85.1l8.7-6.5l2.2,6.5H74.7z
		 M84,98.3l3.6-10.2l5.4,4.2L84,98.3z M100.7,104l-3.5-10.3h6.8L100.7,104z M100.7,90.3c-7.5,0-13.6-6.1-13.6-13.6
		s6.1-13.6,13.6-13.6s13.6,6.1,13.6,13.6S108.2,90.3,100.7,90.3z M108.3,92.2l5.4-4.2l3.6,10.2L108.3,92.2z M115.8,85.1l2.2-6.5
		l8.7,6.5H115.8z M117.9,74.8l-2.2-6.5h10.9L117.9,74.8z"/>
</g>
</svg>
